<svg xmlns="http://www.w3.org/2000/svg" xmlns:xlink="http://www.w3.org/1999/xlink" width="256" height="256" viewBox="0 0 256 256">
  <defs>
    <clipPath id="clip-icon">
      <rect width="256" height="256"/>
    </clipPath>
  </defs>
  <g id="icon" clip-path="url(#clip-icon)">
    <rect width="256" height="256" fill="#fff"/>
    <g id="Group_2" data-name="Group 2" transform="translate(0.5 -4.738)">
      <g id="Westpac_Logo" data-name="Westpac Logo" transform="translate(53.5 28.738)">
        <path id="Path_2" data-name="Path 2" d="M55.656,139.124,40.91,93.786c-1.981-6.824-5.5-8.8-10.784-8.8H2.834c2.2.88,3.521,6.382,3.521,6.382l13.206,45.56a11.54,11.54,0,0,0,11.666,8.8H60.057C57.856,145.287,55.656,139.124,55.656,139.124Zm43.356,0,14.746-45.338c1.981-6.824,5.5-8.8,10.784-8.8h27.292c-2.2.88-3.521,6.382-3.521,6.382l-13.2,45.56a11.539,11.539,0,0,1-11.663,8.8H94.611C96.812,145.287,99.012,139.124,99.012,139.124Zm-37.634,6.6H93.29V85.206H61.378Z" transform="translate(-2.834 -84.984)" fill="#cf4037" fill-rule="evenodd"/>
      </g>
      <g id="Plus" transform="translate(-468.5 62)">
        <rect id="Rectangle_1" data-name="Rectangle 1" width="4.131" height="26.333" transform="translate(594.601 53)" fill="#cf4037"/>
        <rect id="Rectangle_2" data-name="Rectangle 2" width="4.131" height="26.333" transform="translate(609.833 64.101) rotate(90)" fill="#cf4037"/>
      </g>
      <g id="Woocommerce_Logo" data-name="Woocommerce Logo" transform="translate(68.178 166.853)">
        <path id="Path_5" data-name="Path 5" d="M11.011,0h96.573a11.054,11.054,0,0,1,11.059,11.059V47.923a11.054,11.054,0,0,1-11.059,11.059H72.952l4.754,11.641L56.8,58.982H11.059A11.054,11.054,0,0,1,0,47.923V11.059A11.012,11.012,0,0,1,11.011,0Z" transform="translate(0)" fill="#9b5c8f"/>
        <path id="Path_6" data-name="Path 6" d="M13.617,17.655a3.88,3.88,0,0,1,3.038-1.5q3.69-.29,4.2,3.472,2.243,15.12,4.871,25.61L36.284,25.13q1.447-2.749,3.618-2.894c2.122-.145,3.424,1.205,3.955,4.051a90.128,90.128,0,0,0,4.582,16.494Q50.319,24.407,54.8,16.256a3.7,3.7,0,0,1,3.183-2.123,4.192,4.192,0,0,1,3.038.965,3.778,3.778,0,0,1,1.5,2.749,4.188,4.188,0,0,1-.482,2.315c-1.881,3.473-3.425,9.308-4.679,17.41-1.205,7.861-1.64,13.987-1.35,18.376a5.724,5.724,0,0,1-.578,3.183,3.109,3.109,0,0,1-2.556,1.736,4.848,4.848,0,0,1-3.81-1.784Q42.337,52.21,38.407,38.538q-4.7,9.26-6.945,13.89c-2.846,5.45-5.257,8.248-7.283,8.392-1.3.1-2.411-1.013-3.376-3.328q-3.689-9.477-7.957-36.606a4.106,4.106,0,0,1,.771-3.231Zm103.644,7.572a11.108,11.108,0,0,0-7.716-5.595,12.668,12.668,0,0,0-2.6-.289c-4.63,0-8.392,2.411-11.334,7.234a25.551,25.551,0,0,0-3.762,13.6,18.675,18.675,0,0,0,2.315,9.549,11.106,11.106,0,0,0,7.716,5.594,12.636,12.636,0,0,0,2.6.29c4.678,0,8.44-2.411,11.334-7.234a25.846,25.846,0,0,0,3.762-13.649,17.8,17.8,0,0,0-2.315-9.5Zm-6.077,13.359a12.756,12.756,0,0,1-3.666,7.138c-1.4,1.254-2.7,1.784-3.906,1.543-1.158-.241-2.123-1.254-2.846-3.135a12.228,12.228,0,0,1-.868-4.389,16.779,16.779,0,0,1,.337-3.52,15.6,15.6,0,0,1,2.556-5.739c1.592-2.364,3.28-3.328,5.016-2.99,1.158.241,2.123,1.254,2.846,3.135a12.238,12.238,0,0,1,.868,4.389,16.926,16.926,0,0,1-.337,3.569ZM87.07,25.227a11.208,11.208,0,0,0-7.716-5.595,12.665,12.665,0,0,0-2.6-.289c-4.63,0-8.392,2.411-11.334,7.234a25.556,25.556,0,0,0-3.762,13.6,18.675,18.675,0,0,0,2.315,9.549,11.106,11.106,0,0,0,7.716,5.594,12.639,12.639,0,0,0,2.6.29c4.678,0,8.44-2.411,11.334-7.234a25.841,25.841,0,0,0,3.762-13.649A18.248,18.248,0,0,0,87.07,25.227ZM80.945,38.586a12.759,12.759,0,0,1-3.665,7.138c-1.4,1.254-2.7,1.784-3.907,1.543-1.157-.241-2.122-1.254-2.846-3.135a12.248,12.248,0,0,1-.868-4.389A16.779,16.779,0,0,1,70,36.223a15.594,15.594,0,0,1,2.556-5.739c1.591-2.364,3.279-3.328,5.015-2.99,1.158.241,2.123,1.254,2.846,3.135a12.228,12.228,0,0,1,.868,4.389,14.229,14.229,0,0,1-.337,3.569Z" transform="translate(-6.861 -7.575)" fill="#fff"/>
      </g>
    </g>
    <g id="spanrig" transform="translate(1.927 176.707)">
      <path id="Path_7" data-name="Path 7" d="M30.646,68.01A6.968,6.968,0,0,0,32.939,64.3a7.5,7.5,0,0,0-2.7-7.873,23.227,23.227,0,0,0-5.528-3.068c-2.266-1.005-4.558-1.966-6.771-3.077A11.076,11.076,0,0,1,12.564,44.9a6.346,6.346,0,0,1-.6-2.821,22.713,22.713,0,0,1,.141-3.641c.846-4.461,3.641-7.159,7.952-8.376.361-.1.723-.176,1.137-.264a15.538,15.538,0,0,0-1.481,1.032,6.106,6.106,0,0,0-1.922,4.62,6.208,6.208,0,0,0,2.539,5.219,18.628,18.628,0,0,0,4.355,2.469c2.213.987,4.443,1.948,6.6,3.033a12.463,12.463,0,0,1,6.18,6.154,11.969,11.969,0,0,1,.838,3.042c.661,4.664-1.208,8.27-4.858,11.056a27.182,27.182,0,0,1-2.433,1.49C30.9,67.958,30.77,67.975,30.646,68.01Z" transform="translate(-0.603 -0.729)"/>
      <path id="Path_8" data-name="Path 8" d="M300.1,29c3.3.194,6.471.793,9.213,2.751a7.733,7.733,0,0,1,.864,12.317,10.587,10.587,0,0,1-6.268,2.83l-.264.026c-.026,0-.053.026-.168.079.432.062.785.1,1.137.15a13.882,13.882,0,0,1,7.212,3.042,8.805,8.805,0,0,1,3.236,6.6c.053,1.94.009,3.879.035,5.819a13.6,13.6,0,0,0,.141,1.8A3.164,3.164,0,0,0,317,67.21c-2.918.229-5.687.088-8.005-1.878a7.988,7.988,0,0,1-2.83-5.775c-.106-1.64-.026-3.289-.106-4.928a14.726,14.726,0,0,0-.37-3.05,5.96,5.96,0,0,0-4.875-4.426c-.115-.026-.229-.053-.344-.071a.7.7,0,0,1-.309-.115c.291-.079.591-.159.882-.229a4.146,4.146,0,0,0,2.927-2.848,14.508,14.508,0,0,0,.67-4.294,20.207,20.207,0,0,0-.564-6.383,5.543,5.543,0,0,0-3.8-4.108A1.866,1.866,0,0,0,300.1,29Z" transform="translate(-263.338)"/>
      <path id="Path_9" data-name="Path 9" d="M190.2,82.643a4.524,4.524,0,1,1,4.532-4.532A4.506,4.506,0,0,1,190.2,82.643Z" transform="translate(-159.024 -40.665)"/>
      <path id="Path_10" data-name="Path 10" d="M11.3,328.264a4.249,4.249,0,0,1,2.865-4.25,4.457,4.457,0,0,1,5.1,1.49,4.512,4.512,0,0,1-3.3,7.265A4.338,4.338,0,0,1,11.52,329.9,6.632,6.632,0,0,1,11.3,328.264Z" transform="translate(0 -268.759)"/>
    </g>
  </g>
</svg>
